<?xml version="1.0" standalone="no"?>
<!DOCTYPE svg PUBLIC "-//W3C//DTD SVG 20010904//EN"
 "http://www.w3.org/TR/2001/REC-SVG-20010904/DTD/svg10.dtd">
<svg version="1.0" xmlns="http://www.w3.org/2000/svg"
 width="1024.000000pt" height="1024.000000pt" viewBox="0 0 1024.000000 1024.000000"
 preserveAspectRatio="xMidYMid meet">

<g transform="translate(0.000000,1024.000000) scale(0.100000,-0.100000)"
fill="#000000" stroke="none">
<path d="M5922 7860 c-84 -25 -147 -63 -181 -111 l-29 -39 -26 21 c-15 12 -44
23 -66 26 -54 8 -93 -31 -109 -109 -21 -97 14 -194 100 -280 59 -59 46 -74
-35 -39 -246 108 -482 135 -724 82 -164 -36 -340 -117 -467 -216 -103 -80
-110 -83 -140 -55 -27 25 -65 97 -65 122 0 11 13 17 42 21 32 4 51 15 75 41
36 39 40 63 18 105 -16 33 -33 41 -81 41 l-35 0 16 30 c46 90 -24 187 -105
145 -52 -27 -79 -107 -62 -182 6 -24 9 -43 7 -43 -1 0 -19 7 -38 15 -75 31
-127 7 -127 -61 0 -51 48 -98 116 -112 28 -6 60 -9 71 -6 17 5 24 -4 43 -50
12 -31 40 -76 62 -101 l40 -45 -48 -53 c-26 -28 -58 -69 -72 -89 -28 -43 -42
-48 -42 -15 0 68 -118 177 -191 177 -48 0 -59 -18 -59 -97 1 -99 49 -173 138
-208 23 -10 42 -19 42 -21 0 -3 -20 -47 -45 -99 -25 -51 -58 -133 -74 -182
-16 -48 -31 -81 -34 -73 -42 123 -49 154 -36 159 8 2 29 19 47 37 40 40 42 80
6 152 -35 70 -65 92 -125 92 l-49 0 -31 62 c-17 34 -42 78 -56 99 l-24 37 25
37 c83 122 43 272 -117 441 -80 84 -181 165 -224 178 -29 9 -46 -24 -73 -136
-53 -225 -30 -407 64 -506 51 -55 101 -75 185 -76 l75 -1 43 -80 c23 -44 43
-85 43 -91 0 -6 -11 -16 -25 -22 -30 -14 -65 -68 -65 -100 0 -19 -3 -21 -19
-12 -11 5 -42 10 -70 10 -50 0 -51 1 -51 30 0 93 -74 149 -137 105 -20 -14
-25 -13 -71 16 -96 59 -157 22 -157 -95 0 -53 5 -71 31 -113 l32 -51 -30 -6
c-97 -19 -149 -131 -99 -212 40 -66 186 -97 278 -59 19 8 39 15 44 15 4 0 22
-26 39 -59 17 -32 59 -89 92 -127 l61 -68 -48 -13 c-89 -22 -130 -71 -143
-167 l-7 -56 -38 26 c-38 25 -38 26 -22 51 26 39 31 132 10 174 -30 58 -55 79
-95 79 -36 0 -38 2 -44 40 -10 65 -74 109 -117 81 -26 -16 -26 -16 -44 39 -19
58 -69 116 -108 125 -48 12 -117 -33 -155 -102 -10 -16 -12 -16 -29 -1 -30 27
-119 51 -168 45 -65 -7 -75 -19 -75 -89 0 -64 17 -108 51 -132 21 -14 21 -15
-15 -46 -74 -65 -64 -153 24 -197 24 -13 57 -23 72 -23 25 0 28 -4 28 -30 0
-41 27 -80 67 -96 31 -13 33 -17 33 -63 0 -58 32 -97 87 -107 40 -8 107 10
142 37 13 10 30 19 37 19 16 0 122 -61 155 -90 l24 -21 -40 8 c-22 4 -72 8
-110 8 -91 0 -170 -36 -219 -101 -82 -107 -51 -206 76 -241 l58 -16 0 -69 c0
-49 -4 -68 -13 -68 -7 0 -49 11 -93 24 l-79 23 0 54 c-1 106 -43 168 -140 205
-46 17 -49 17 -84 -2 -20 -10 -45 -36 -56 -57 -14 -26 -24 -35 -35 -30 -8 4
-40 8 -70 10 -43 3 -65 -1 -100 -19 l-45 -23 1 -60 c2 -71 28 -138 72 -182 38
-38 79 -47 132 -28 l40 14 15 -34 c16 -39 55 -60 94 -50 25 6 99 75 117 108 8
13 17 16 42 11 18 -4 32 -10 32 -14 0 -4 -16 -20 -35 -34 -96 -74 -81 -179 29
-207 l41 -10 1 -67 c0 -49 10 -97 36 -177 47 -144 62 -223 55 -287 -12 -99
-74 -140 -183 -122 -67 10 -61 -7 -48 146 6 73 6 77 -19 102 -21 20 -36 26
-72 26 -57 0 -91 -17 -139 -71 -122 -134 -167 -486 -86 -675 43 -99 125 -156
225 -157 73 -1 131 24 197 82 25 22 51 41 57 41 6 0 11 4 11 9 0 5 13 12 28
16 l29 6 -5 72 c-5 87 25 225 66 300 101 188 331 266 512 174 114 -58 152
-215 78 -319 -44 -63 -172 -109 -340 -124 l-80 -7 6 -45 c17 -126 121 -203
235 -172 23 6 63 30 91 55 54 48 86 51 96 9 15 -59 -62 -162 -158 -210 -48
-24 -48 -25 -34 -53 8 -15 41 -63 74 -107 246 -331 667 -518 1352 -601 224
-27 703 -24 950 6 442 53 790 162 1025 321 130 88 271 234 359 372 17 26 17
27 -10 40 -61 29 -85 108 -144 468 -22 135 -47 265 -55 289 -8 25 -15 48 -15
52 0 16 89 49 134 49 60 0 81 -12 105 -58 26 -52 36 -107 66 -358 14 -120 30
-223 34 -227 21 -21 89 120 134 279 34 117 50 235 42 301 -3 29 -4 61 0 72 8
26 58 45 103 38 l37 -6 26 82 c15 45 48 140 73 210 58 162 61 219 15 272 -30
34 -57 45 -141 60 -31 5 -38 10 -38 28 0 44 13 49 64 27 92 -39 161 -22 212
51 28 40 29 47 29 150 0 140 -2 143 -127 148 -109 4 -156 -8 -207 -54 l-38
-35 -13 25 c-12 22 -10 29 13 63 28 39 131 122 204 163 40 23 42 23 78 6 45
-22 80 -21 130 2 83 37 147 143 161 265 6 49 4 55 -17 69 -39 25 -164 40 -225
27 -129 -27 -209 -153 -159 -250 15 -28 15 -29 -36 -65 -27 -21 -52 -35 -54
-33 -3 2 0 19 5 37 19 69 -15 123 -85 137 -32 6 -33 7 -40 72 -13 128 -116
286 -221 340 l-37 19 89 6 c112 7 203 35 283 87 72 47 114 89 142 142 26 51
24 87 -11 153 -35 67 -36 89 -10 173 27 87 26 175 -2 232 -54 104 -143 131
-283 86 -99 -32 -126 -32 -162 -2 -69 57 -151 72 -219 40 -49 -23 -134 -120
-176 -200 -51 -96 -67 -166 -79 -339 -11 -157 -25 -228 -60 -284 -22 -36 -29
-34 -49 17 -12 30 -11 35 9 56 11 12 21 32 21 44 0 21 -35 62 -53 62 -14 0 -1
136 20 200 9 30 46 98 82 150 183 268 197 297 188 376 -10 93 -87 162 -240
215 -227 79 -342 -5 -395 -290 l-15 -85 -46 55 c-67 80 -186 192 -268 251 -65
46 -71 54 -58 67 11 12 35 14 99 12 69 -2 93 1 135 20 63 26 114 88 136 162
29 98 16 260 -32 378 -13 34 -19 39 -47 38 -17 0 -59 -9 -94 -19z m-22 -157
c-20 -43 -51 -112 -69 -153 -33 -77 -94 -170 -110 -170 -5 0 -32 23 -60 52
-76 78 -98 165 -56 221 13 18 15 18 52 -7 21 -14 52 -26 69 -26 23 0 34 -6 42
-25 12 -26 37 -34 44 -14 2 6 1 32 -2 58 -8 65 4 85 69 115 31 14 56 26 57 26
1 0 -15 -35 -36 -77z m119 23 c6 -25 11 -76 11 -114 0 -77 7 -69 -88 -103 -37
-13 -52 -15 -49 -6 34 86 40 95 53 90 23 -9 66 25 62 50 -2 17 -9 21 -29 19
l-26 -3 19 60 c11 34 23 59 28 56 4 -2 13 -25 19 -49z m-2603 -268 c50 -52 91
-106 107 -140 67 -140 5 -269 -121 -255 -52 6 -86 29 -127 86 -28 40 -30 49
-33 151 -4 107 9 225 29 262 10 18 11 18 37 -1 15 -10 64 -57 108 -103z m744
92 c0 -35 -30 -101 -42 -94 -11 7 -10 82 2 105 17 30 40 24 40 -11z m1850 -87
c0 -23 -45 -76 -74 -88 -52 -22 -116 -30 -116 -15 0 21 34 70 50 71 8 0 38 9
65 19 57 20 75 23 75 13z m-1752 -74 c4 -21 -24 -49 -49 -49 -21 0 -25 21 -8
51 12 24 52 22 57 -2z m-233 -39 l29 -30 -24 0 c-23 0 -70 35 -70 52 0 19 38
6 65 -22z m1063 -17 c-16 -2 -40 -2 -55 0 -16 2 -3 4 27 4 30 0 43 -2 28 -4z
m1440 -185 c-3 -7 -11 -13 -18 -13 -7 0 -15 6 -17 13 -3 7 4 12 17 12 13 0 20
-5 18 -12z m-254 -4 c23 -9 20 -34 -4 -34 -13 0 -20 7 -20 20 0 22 1 23 24 14z
m-984 -49 c80 -21 209 -80 287 -132 91 -59 219 -189 284 -286 32 -48 59 -93
59 -98 0 -5 -12 -9 -27 -9 -35 0 -138 -48 -181 -85 -18 -15 -44 -47 -58 -71
-14 -24 -29 -44 -32 -44 -4 0 -38 16 -76 35 -59 30 -78 35 -141 35 -62 0 -82
-5 -130 -30 -31 -16 -58 -30 -60 -30 -2 0 -9 16 -15 35 -30 91 -126 149 -190
115 -27 -14 -43 -71 -30 -105 9 -24 8 -26 -7 -20 -61 27 -123 44 -155 45 -96
1 -230 -84 -270 -170 -13 -27 -26 -50 -31 -50 -4 0 -27 10 -49 21 -64 33 -138
56 -222 69 -52 9 -76 17 -76 27 0 7 15 51 33 96 140 347 423 596 758 667 63
13 253 4 329 -15z m1123 -12 c4 -3 2 -12 -4 -19 -13 -16 -54 0 -44 17 7 10 38
12 48 2z m-2520 -100 c-5 -13 -2 -15 15 -11 12 4 20 2 16 -3 -3 -5 1 -9 9 -9
22 0 60 -47 53 -66 -3 -9 -13 -14 -20 -11 -8 3 -17 -1 -20 -9 -3 -8 0 -14 6
-14 6 0 8 -3 5 -6 -9 -9 -38 16 -31 27 3 5 -2 12 -10 15 -9 3 -13 10 -10 15 3
5 1 9 -4 9 -11 0 -24 58 -16 71 9 15 14 10 7 -8z m2469 -15 c26 -26 10 -45
-23 -27 -24 12 -49 34 -49 42 0 13 55 2 72 -15z m651 -105 c65 -48 110 -52
212 -19 109 35 139 34 180 -7 48 -48 52 -87 21 -196 -33 -114 -32 -144 4 -210
17 -30 30 -63 30 -74 0 -56 -90 -134 -206 -179 -48 -19 -79 -23 -164 -23 -58
0 -140 4 -182 9 -53 6 -91 5 -123 -3 -26 -7 -49 -10 -51 -8 -2 2 50 54 116
115 l120 112 78 1 c106 2 137 9 137 34 0 18 -8 21 -68 25 l-68 5 88 71 c67 53
88 76 88 94 0 43 -28 33 -115 -40 -47 -38 -86 -65 -88 -60 -2 6 1 33 7 60 6
28 11 67 11 85 0 30 -3 35 -25 35 -28 0 -37 -24 -57 -153 l-12 -78 -145 -135
c-142 -130 -172 -154 -152 -115 6 10 15 93 21 185 5 92 15 188 21 214 24 110
124 258 193 287 41 18 71 10 129 -32z m-578 -76 c13 -10 15 -16 6 -21 -18 -12
-61 2 -61 19 0 19 30 19 55 2z m-3293 -58 c19 -35 25 -129 9 -129 -33 0 -89
119 -76 160 9 28 44 11 67 -31z m638 -1 c12 -19 19 -46 18 -63 -3 -26 -7 -30
-28 -27 -73 8 -75 8 -92 -28 -23 -44 -46 -45 -75 -1 -26 39 -29 73 -8 91 20
16 126 59 148 60 9 0 26 -15 37 -32z m-500 -18 c0 -17 -10 -50 -22 -73 l-23
-42 -3 52 c-3 56 10 93 33 93 10 0 15 -10 15 -30z m3132 -67 c-6 -3 -10 -9 -6
-14 3 -5 -6 -9 -19 -9 -41 0 -39 25 2 26 20 1 30 0 23 -3z m-2966 -58 c18 -46
-30 -105 -102 -125 -43 -12 -48 -12 -60 5 -30 41 -8 83 61 119 39 20 94 21
101 1z m193 -92 c20 3 45 7 55 9 16 2 22 -8 38 -67 22 -83 36 -269 21 -278 -6
-4 -35 2 -66 13 -80 28 -110 26 -152 -11 l-36 -32 -47 52 c-45 50 -122 165
-122 183 0 4 6 8 13 8 6 0 35 11 64 24 56 26 97 76 114 138 l10 37 36 -40 c33
-36 41 -40 72 -36z m2725 31 c13 -33 6 -49 -9 -20 -18 33 -18 36 -6 36 5 0 12
-7 15 -16z m-57 -26 c-3 -8 -6 -5 -6 6 -1 11 2 17 5 13 3 -3 4 -12 1 -19z
m-3122 -33 c14 -13 25 -31 25 -39 0 -8 3 -21 6 -29 8 -21 -86 -51 -138 -44
-64 9 -106 63 -80 104 12 20 54 32 110 32 43 1 57 -3 77 -24z m2805 -18 c0
-48 22 -77 73 -96 31 -12 31 -28 -5 -113 -18 -42 -26 -49 -62 -59 -63 -16
-118 -53 -174 -114 l-51 -55 -44 24 c-25 13 -59 28 -76 34 -28 10 -30 14 -25
44 12 70 67 219 94 256 56 78 135 121 223 122 l47 0 0 -43z m177 -22 c26 -41
30 -44 69 -43 23 0 47 -2 53 -6 5 -4 18 -31 27 -61 23 -73 12 -121 -34 -148
-33 -20 -34 -20 -80 1 -26 11 -54 23 -63 25 -15 5 -15 12 4 77 l21 71 -20 37
c-17 32 -24 37 -53 34 -26 -2 -32 1 -29 15 3 18 42 43 66 43 7 0 25 -20 39
-45z m-1075 8 c21 -19 25 -55 4 -47 -11 4 -36 45 -36 59 0 10 14 4 32 -12z
m-2305 -88 c48 -34 60 -162 21 -224 -17 -28 -41 -26 -116 9 -34 16 -94 39
-133 50 -79 24 -122 58 -117 93 7 53 98 23 155 -52 21 -27 45 -49 53 -48 14 2
33 44 44 99 6 26 51 88 65 88 3 0 16 -7 28 -15z m1489 -146 c76 -14 175 -53
244 -97 114 -72 239 -228 285 -355 l23 -62 -60 -64 c-57 -63 -103 -127 -160
-225 -33 -55 -53 -58 -102 -16 -68 60 -138 73 -234 45 -65 -20 -116 -63 -148
-128 -24 -46 -27 -49 -57 -44 -18 3 -62 19 -99 35 -62 28 -68 34 -78 73 -6 23
-8 45 -3 49 4 4 31 15 59 24 62 20 92 47 71 64 -10 9 -28 4 -73 -17 l-60 -28
-49 28 c-35 20 -53 38 -62 61 -20 58 -17 64 40 77 56 12 117 44 117 61 0 22
-33 22 -79 1 -26 -13 -62 -23 -81 -24 -41 -2 -48 14 -49 125 -2 164 83 299
232 373 103 50 209 65 323 44z m-1296 -34 c9 -23 -2 -121 -15 -134 -3 -2 -13
2 -22 11 -28 28 -14 148 18 148 5 0 14 -11 19 -25z m-360 -75 c21 -11 41 -24
45 -30 10 -16 -22 -55 -66 -79 -53 -30 -119 -25 -156 11 -23 24 -24 25 -6 47
18 22 107 70 131 71 7 0 30 -9 52 -20z m496 -37 c17 -23 18 -84 0 -108 -13
-18 -14 -18 -47 2 -39 23 -41 48 -8 94 23 33 36 36 55 12z m3843 -65 c79 -30
180 -131 209 -211 24 -64 28 -127 10 -178 -14 -43 -70 -122 -78 -112 -3 5 -14
35 -24 68 -36 119 -127 234 -219 276 -51 23 -138 25 -197 4 -23 -8 -44 -15
-45 -15 -1 0 -5 18 -9 41 -7 46 12 82 64 119 61 44 184 47 289 8z m-4037 -35
c24 -22 24 -91 1 -109 -25 -19 -61 -17 -72 4 -5 9 -12 48 -16 85 l-7 68 38
-16 c21 -9 46 -23 56 -32z m1919 21 c45 -23 88 -64 116 -111 l26 -44 -34 -35
c-18 -19 -35 -34 -38 -34 -4 0 -17 25 -30 55 -12 30 -43 84 -67 121 -24 37
-44 69 -44 71 0 6 40 -7 71 -23z m670 -1 c-11 -16 -29 -61 -40 -102 -12 -41
-25 -79 -30 -84 -5 -5 -31 8 -62 32 -58 44 -83 50 -97 25 -11 -19 32 -69 85
-100 47 -26 47 -40 1 -63 l-41 -20 -54 46 c-49 42 -53 49 -47 77 11 53 22 74
60 116 56 62 129 98 202 99 l43 1 -20 -27z m159 -7 c39 -19 45 -26 43 -52 -1
-16 -2 -70 -3 -121 l-2 -91 -51 -7 c-46 -7 -53 -5 -70 16 -11 13 -24 23 -28
22 -5 -2 -9 2 -9 7 0 6 -9 10 -20 10 -11 0 -20 7 -20 15 0 8 4 15 8 15 4 0 9
10 9 23 1 12 9 55 18 95 9 40 14 80 11 89 -5 13 0 14 31 9 21 -4 58 -17 83
-30z m-2921 -8 c11 -30 7 -33 -29 -18 -24 10 -28 15 -19 26 17 21 39 17 48 -8z
m621 -27 c-5 -11 -15 -23 -20 -26 -14 -9 -12 19 2 33 19 19 30 14 18 -7z
m-634 -72 c23 -19 -1 -29 -68 -29 -51 0 -58 2 -58 19 0 11 8 22 18 25 27 8 91
-1 108 -15z m352 -25 c13 -9 43 -43 67 -76 l44 -61 -21 -31 c-48 -69 -46 -69
-89 -35 -38 30 -38 31 -22 55 18 29 12 103 -12 141 -19 28 -2 32 33 7z m-259
-94 l23 -19 -34 -21 c-59 -36 -102 -39 -121 -9 -8 12 -7 21 4 31 41 42 93 49
128 18z m169 -3 c5 -22 -24 -33 -44 -16 -14 12 -14 14 2 26 22 16 38 12 42
-10z m3850 -4 c66 -31 140 -150 163 -263 16 -78 6 -240 -21 -317 -18 -53 -92
-183 -103 -183 -2 0 -17 26 -33 57 -38 74 -133 170 -209 209 -105 55 -154 66
-271 62 l-105 -3 3 35 c3 31 17 47 119 135 64 55 140 128 169 162 105 125 185
154 288 106z m-1661 -68 c167 -155 274 -324 307 -487 20 -97 20 -159 1 -254
-25 -118 -78 -222 -161 -313 l-36 -41 -114 0 c-62 0 -115 4 -118 8 -6 10 69
84 101 101 13 7 39 9 63 5 33 -5 40 -4 40 9 0 20 -30 37 -65 37 -34 0 -77 -23
-124 -66 l-38 -34 -13 59 c-12 56 -11 60 11 91 35 47 79 70 133 70 49 0 74 23
45 41 -38 24 -119 3 -177 -46 -18 -15 -34 -26 -36 -24 -2 2 -6 20 -10 40 -6
33 -3 39 26 61 18 14 68 44 110 67 61 33 87 42 127 43 58 0 85 20 52 37 -55
30 -129 8 -260 -77 -35 -23 -67 -40 -70 -37 -4 2 -8 35 -9 73 l-3 70 48 42
c71 63 155 100 226 100 44 0 59 4 64 16 13 33 -44 43 -137 23 -32 -7 -79 -30
-123 -59 -84 -57 -85 -55 -67 59 11 67 39 156 81 258 14 35 9 49 -16 39 -23
-8 -80 -134 -106 -232 -12 -46 -27 -84 -33 -84 -6 0 -26 9 -44 20 -40 25 -62
25 -62 2 0 -19 39 -45 83 -56 26 -6 27 -8 27 -82 0 -67 -2 -75 -17 -70 -81 23
-106 27 -116 17 -18 -18 13 -40 72 -51 30 -6 55 -11 56 -13 2 -1 6 -28 9 -60
l7 -57 -43 6 c-24 4 -45 7 -48 6 -23 0 -29 -4 -24 -16 7 -17 56 -36 95 -36 23
0 28 -5 34 -32 4 -18 9 -40 11 -50 4 -14 -3 -16 -54 -11 -42 4 -62 2 -67 -7
-10 -16 21 -41 40 -34 7 3 31 0 54 -6 32 -8 42 -16 47 -38 3 -15 12 -48 19
-74 l13 -48 -78 0 -78 0 -62 68 c-106 115 -157 228 -167 367 -11 150 34 305
127 439 78 113 292 306 339 306 9 0 57 -38 108 -85z m2623 28 c0 -49 -54 -148
-96 -177 -50 -33 -76 -35 -46 -3 29 30 28 35 -9 44 l-31 8 49 35 c48 34 72 58
73 73 0 18 -56 4 -97 -23 -38 -26 -44 -27 -38 -11 9 30 -14 36 -41 10 -27 -26
-32 -15 -8 20 26 36 71 50 162 51 l82 0 0 -27z m-2297 -36 c16 -11 15 -14 -13
-31 -37 -21 -44 -18 -31 18 12 29 19 32 44 13z m-1843 -111 c25 -76 48 -109
90 -126 26 -11 30 -18 30 -50 0 -48 -26 -73 -71 -68 -27 2 -38 11 -56 43 -13
22 -23 50 -23 63 0 31 -33 29 -59 -4 -29 -37 -35 -83 -18 -148 14 -56 14 -57
-11 -76 -33 -27 -38 -25 -46 11 -11 58 -6 97 24 176 17 42 30 83 30 89 0 15
-23 24 -58 24 -79 1 -104 108 -29 123 12 2 57 5 99 6 l76 1 22 -64z m2103 57
c-7 -2 -19 -2 -25 0 -7 3 -2 5 12 5 14 0 19 -2 13 -5z m214 -75 c-3 -8 -6 -5
-6 6 -1 11 2 17 5 13 3 -3 4 -12 1 -19z m1317 12 c32 -12 33 -34 4 -54 -28
-20 -37 -12 -15 12 21 23 13 32 -25 32 -17 0 -27 4 -23 10 8 13 27 13 59 0z
m-1273 -27 c13 -16 12 -17 -3 -4 -10 7 -18 15 -18 17 0 8 8 3 21 -13z m-3121
-75 c-17 -24 -34 -67 -40 -97 -6 -30 -12 -56 -14 -59 -8 -7 -61 8 -94 28 -19
12 -32 28 -32 40 0 34 60 90 120 110 87 30 95 27 60 -22z m3020 10 c0 -5 -5
-8 -11 -8 -5 0 -7 5 -4 10 3 6 1 10 -5 10 -6 0 -8 5 -4 11 6 11 23 -6 24 -23z
m1325 -4 c-13 -20 -15 -37 -11 -73 5 -33 4 -42 -3 -31 -18 25 -13 101 7 120
24 24 28 16 7 -16z m-4187 -12 c10 -7 9 -17 -3 -53 -17 -47 -13 -89 8 -89 7 0
24 25 36 55 32 76 58 95 136 95 68 0 156 -22 174 -44 10 -11 8 -23 -9 -55 -11
-23 -24 -41 -28 -41 -4 0 -18 -9 -32 -20 -22 -17 -26 -28 -30 -102 l-5 -83
-32 -3 c-29 -3 -34 1 -57 47 -45 87 -124 123 -212 96 -48 -15 -49 -15 -71 11
-13 14 -23 38 -23 55 0 34 24 95 47 121 17 19 77 24 101 10z m4262 -32 c0 -5
-5 -10 -11 -10 -5 0 -7 5 -4 10 3 6 8 10 11 10 2 0 4 -4 4 -10z m-2923 -58
c47 -30 33 -153 -24 -205 -19 -16 -21 -16 -59 11 -85 62 -120 138 -79 172 29
24 136 38 162 22z m1740 -76 c40 -27 58 -62 46 -93 -9 -24 -35 -14 -85 33 -55
51 -65 51 -135 3 -40 -28 -41 -28 -36 -6 3 12 24 39 46 60 37 34 47 38 83 34
22 -2 58 -16 81 -31z m-3642 9 c28 -6 55 -42 55 -72 l0 -26 -21 27 c-18 22
-69 38 -69 21 0 -13 30 -62 44 -74 21 -18 20 -31 -2 -31 -34 0 -82 76 -82 128
0 36 9 45 35 37 11 -3 29 -8 40 -10z m-190 -79 c35 -15 50 -42 18 -32 -52 15
-71 17 -78 6 -9 -15 14 -41 53 -57 28 -12 31 -16 22 -34 -6 -11 -22 -25 -36
-31 -20 -9 -28 -8 -45 8 -25 23 -56 80 -60 114 -3 20 1 26 26 31 49 11 64 10
100 -5z m1125 -116 c6 -30 13 -66 17 -79 9 -35 -13 -18 -37 29 -20 40 -26 112
-13 160 7 23 8 21 14 -15 4 -22 12 -65 19 -95z m3726 100 c76 -37 122 -136 88
-188 -16 -25 -18 -25 -25 -7 -4 11 -8 34 -8 51 -1 37 -23 61 -38 42 -6 -7 -13
-61 -15 -119 -4 -95 -8 -112 -39 -175 -32 -65 -37 -70 -84 -86 -75 -25 -83
-22 -49 15 82 87 100 144 109 340 4 81 10 147 13 147 3 0 25 -9 48 -20z m412
14 c35 -7 44 -40 32 -117 -13 -85 -73 -121 -130 -78 l-24 19 37 18 c38 18 47
40 25 62 -17 17 -46 15 -95 -8 l-43 -19 0 29 c0 70 94 115 198 94z m-4447 -63
c32 -33 37 -67 14 -111 -17 -32 -72 -70 -103 -70 -58 0 -102 48 -102 113 0 39
14 59 55 81 50 26 102 21 136 -13z m1391 -38 c-2 -38 -6 -70 -8 -72 -7 -8 -64
42 -64 57 0 15 57 82 70 82 3 0 4 -30 2 -67z m1484 21 c-3 -9 -6 -24 -6 -34 0
-17 -2 -17 -45 -1 -61 23 -63 28 -13 39 64 14 71 14 64 -4z m-1722 -30 c25
-14 46 -31 46 -38 0 -23 -60 -96 -87 -107 -14 -5 -27 -8 -28 -7 -6 7 -35 137
-35 156 0 31 45 29 104 -4z m-1783 -52 c-24 -44 -74 -55 -66 -15 2 10 4 21 4
26 1 4 17 7 36 7 32 0 35 -2 26 -18z m3446 -41 c53 -25 127 -92 143 -132 7
-16 11 -31 9 -33 -2 -3 -67 -6 -144 -7 l-140 -4 -78 49 c-42 26 -77 51 -77 55
0 8 89 68 120 80 41 16 122 12 167 -8z m-2640 3 c12 -3 34 -24 49 -46 23 -33
26 -43 16 -56 -7 -9 -20 -33 -28 -52 -20 -43 -30 -50 -74 -50 -19 0 -40 4 -46
8 -17 11 -64 90 -64 106 0 9 17 33 38 56 39 40 61 47 109 34z m1162 -45 c48
-38 78 -75 69 -85 -3 -2 -20 1 -39 6 -18 6 -62 10 -96 10 -35 0 -63 4 -63 9 0
19 52 101 65 101 7 0 36 -18 64 -41z m-1593 -11 l24 -24 -20 -22 c-12 -12 -29
-22 -38 -22 -10 0 -43 -9 -73 -20 -61 -21 -105 -16 -123 12 -13 22 4 42 69 79
62 37 123 36 161 -3z m739 12 c-10 -11 -21 -18 -23 -15 -3 3 3 12 14 20 27 20
30 18 9 -5z m3382 -127 c-14 -26 -35 -57 -47 -68 -18 -16 -16 -7 14 48 23 44
36 82 36 106 0 55 14 61 18 8 2 -33 -4 -59 -21 -94z m313 92 c0 -2 -15 -36
-34 -76 -53 -116 -98 -141 -49 -28 35 83 50 106 68 106 8 0 15 -1 15 -2z
m-4218 -62 c27 -24 40 -75 28 -107 -9 -25 -13 -26 -47 -20 -61 11 -125 38
-137 57 -14 22 9 66 44 85 30 15 87 7 112 -15z m2630 -35 l66 -39 -15 -62 c-8
-34 -17 -75 -20 -90 -5 -25 -9 -28 -32 -23 -75 17 -131 18 -177 2 -26 -9 -54
-16 -61 -16 -15 0 -18 41 -4 56 5 5 27 45 49 89 48 96 83 138 109 128 10 -4
48 -24 85 -45z m-1914 -8 c-7 -10 -14 -17 -17 -15 -4 4 18 35 25 35 2 0 -1 -9
-8 -20z m-179 -46 c25 -21 31 -34 31 -64 0 -65 -34 -81 -124 -61 -47 11 -54
18 -62 57 -4 24 0 37 21 62 35 42 89 44 134 6z m819 7 c10 -5 27 -29 38 -53
10 -24 29 -58 41 -77 13 -19 23 -37 23 -41 0 -10 -252 -22 -262 -12 -8 8 22
41 102 110 28 25 33 33 22 44 -19 19 -72 -14 -137 -84 -52 -56 -56 -58 -105
-58 -29 0 -50 4 -48 8 3 8 70 142 75 151 2 2 24 10 50 17 52 15 169 12 201 -5z
m1630 0 c23 -5 46 -12 50 -15 3 -4 8 -37 10 -74 4 -61 2 -69 -21 -91 -23 -21
-40 -24 -148 -32 -100 -7 -126 -6 -150 7 -16 8 -29 17 -29 19 0 16 44 162 52
172 5 6 19 14 31 16 39 8 161 6 205 -2z m-1500 -58 c28 -17 58 -48 93 -95 l20
-28 -45 0 c-25 0 -46 5 -46 10 0 6 -7 26 -15 46 -8 19 -14 37 -14 41 1 3 -6
10 -15 15 -15 8 -22 28 -11 28 3 0 18 -7 33 -17z m-1248 -14 c7 -11 9 -23 7
-26 -8 -7 -127 18 -127 27 0 13 21 18 67 19 33 1 45 -4 53 -20z m487 -5 c-3
-3 -12 -4 -19 -1 -8 3 -5 6 6 6 11 1 17 -2 13 -5z m-899 -38 c222 -93 551
-152 1025 -182 270 -17 285 -21 273 -68 -6 -26 -7 -26 -114 -26 -298 0 -746
54 -956 115 -149 43 -306 132 -306 174 0 16 14 14 78 -13z m4532 15 c0 -21
-43 -60 -98 -89 -114 -61 -272 -110 -436 -136 l-78 -13 -19 31 c-21 34 -24 56
-10 56 5 0 70 11 143 25 166 31 293 65 383 104 70 30 115 38 115 22z m-1070
-149 c14 -11 29 -31 34 -46 32 -87 -131 -610 -300 -965 -35 -74 -76 -149 -89
-167 -48 -63 -187 -82 -249 -33 -31 24 -33 30 -146 494 -50 204 -106 423 -125
487 -19 65 -35 124 -35 132 0 20 53 62 96 76 78 26 157 -10 189 -86 29 -70
107 -404 160 -689 37 -198 33 -189 62 -125 45 98 91 234 137 402 57 209 76
311 76 410 0 86 9 114 43 129 32 13 118 2 147 -19z m345 -42 c56 -52 53 -134
-6 -184 -43 -36 -88 -42 -142 -18 -54 24 -67 45 -67 107 0 84 49 128 138 122
37 -3 59 -10 77 -27z m-2203 -47 c21 -19 21 -48 2 -179 l-6 -42 87 -3 c96 -4
115 -16 115 -71 0 -42 -34 -58 -138 -65 l-90 -6 -6 -56 c-40 -323 -44 -412
-22 -466 8 -18 23 -38 34 -44 32 -17 94 -13 135 9 54 29 60 26 54 -20 -12 -95
-99 -154 -227 -154 -64 -1 -82 3 -122 27 -31 18 -57 44 -75 75 -28 47 -28 49
-27 217 0 100 7 219 17 289 18 131 17 136 -36 136 -49 0 -67 16 -67 59 0 49
17 63 86 69 60 5 50 -10 86 127 16 63 37 95 71 111 40 18 102 12 129 -13z
m822 1 c21 -21 20 -47 -3 -68 -17 -16 -50 -18 -329 -19 -292 -2 -311 -1 -331
17 -27 25 -27 51 1 70 34 24 639 24 662 0z m-1372 -236 c83 -27 134 -93 125
-160 -6 -45 -26 -71 -68 -88 -46 -19 -76 -1 -90 55 -15 59 -47 85 -106 85 -79
0 -118 -66 -73 -123 12 -14 72 -58 134 -96 176 -110 224 -175 213 -291 -9
-100 -66 -178 -162 -222 -67 -30 -245 -33 -317 -5 -67 26 -118 85 -118 138 0
52 24 97 58 110 46 18 71 3 98 -57 21 -47 31 -58 71 -76 58 -25 109 -19 141
17 49 57 22 100 -119 191 -129 83 -172 123 -199 186 -38 89 -14 204 57 269 83
78 237 107 355 67z m1356 -20 c27 -14 59 -42 77 -67 26 -38 30 -53 33 -126 2
-46 -3 -139 -12 -207 -32 -244 -22 -288 66 -288 50 0 50 0 43 -27 -19 -79 -68
-122 -146 -129 -74 -7 -135 24 -164 83 -11 23 -22 42 -25 43 -3 0 -14 -14 -25
-30 -88 -135 -320 -128 -412 11 -20 31 -28 57 -31 104 -5 80 9 122 61 181 53
61 126 94 282 129 66 15 123 32 127 38 13 21 9 127 -6 156 -28 53 -115 69
-161 29 -18 -17 -28 -38 -34 -77 -5 -34 -16 -60 -27 -68 -40 -29 -140 -7 -164
36 -25 48 -4 119 49 164 97 81 351 106 469 45z m1339 2 c48 -17 53 -42 32
-163 -10 -59 -25 -168 -33 -242 -29 -246 -21 -285 59 -285 l44 0 -10 -32 c-22
-78 -82 -121 -168 -122 -70 -1 -117 24 -148 80 -19 33 -23 54 -23 136 0 143
50 502 82 582 19 48 97 69 165 46z m-2188 -1040 c37 -5 71 -16 80 -26 15 -15
14 -16 -7 -11 -12 3 -20 1 -16 -4 5 -8 -9 -13 -28 -10 -5 0 -8 -4 -8 -10 0 -5
-4 -8 -9 -4 -5 3 -12 1 -16 -5 -3 -5 -27 -10 -53 -10 -30 0 -42 3 -33 9 10 6
10 10 1 16 -6 4 -17 2 -23 -4 -17 -17 -26 -13 -20 10 4 13 11 18 20 14 11 -4
13 -1 9 11 -5 13 -1 15 19 12 14 -3 28 -1 31 3 3 5 -61 8 -143 8 -81 -1 -134
-4 -118 -8 18 -4 25 -9 18 -14 -6 -4 -9 -16 -6 -27 4 -17 0 -19 -36 -17 -23 1
-41 5 -41 10 0 5 -7 7 -15 3 -8 -3 -15 -1 -15 4 0 6 -11 10 -25 10 -30 0 -85
26 -85 40 0 13 432 13 519 0z m1602 -2 c0 -10 2 -10 6 0 4 9 10 7 23 -8 14
-16 25 -19 56 -15 22 3 45 8 52 10 6 2 12 0 12 -5 0 -11 -117 -46 -180 -54
-29 -3 -38 -2 -25 3 19 8 19 9 -5 15 -28 7 -77 3 -87 -7 -3 -4 1 -7 10 -7 10
0 17 -4 17 -10 0 -5 -9 -10 -20 -10 -11 0 -20 5 -20 11 0 8 -5 8 -15 -1 -10
-9 -15 -9 -15 -1 0 6 -13 11 -30 11 -16 0 -30 3 -30 6 0 12 34 33 53 34 10 0
15 5 12 10 -4 6 12 10 42 9 34 0 42 -3 28 -8 -16 -7 -13 -9 19 -13 24 -3 43 1
51 9 8 7 20 14 27 15 7 1 -52 5 -132 8 l-145 6 148 2 c112 2 147 -1 148 -10z
m-347 -10 c-3 -5 -11 -6 -17 -2 -7 3 -3 -2 8 -10 11 -9 25 -14 32 -12 7 3 13
1 13 -4 0 -6 12 -10 28 -11 15 0 21 -3 13 -6 -11 -5 -11 -7 0 -14 9 -6 1 -9
-24 -9 -25 0 -36 4 -31 11 4 8 -1 9 -16 4 -28 -9 -92 3 -85 16 4 5 1 9 -4 9
-6 0 -11 5 -11 10 0 6 6 10 13 9 6 -1 19 -1 27 0 13 1 13 2 0 11 -11 8 -6 10
22 8 20 -1 34 -6 32 -10z m-1381 -5 c-7 -2 -13 -11 -13 -19 0 -8 -5 -14 -11
-14 -6 0 -9 7 -6 14 4 11 1 13 -10 9 -11 -4 -14 -2 -9 5 4 7 19 12 34 11 15 0
21 -3 15 -6z m-489 -45 c31 -30 35 -39 22 -43 -9 -3 -23 -7 -32 -10 -8 -3 -13
-9 -10 -14 4 -5 -1 -17 -10 -25 -14 -15 -14 -16 0 -16 9 0 16 6 17 13 0 10 2
10 6 0 2 -7 18 -13 35 -13 25 0 28 3 23 20 -9 28 9 25 29 -5 l16 -25 -74 0
c-52 0 -93 7 -130 21 -56 21 -79 40 -58 47 7 2 12 10 12 18 0 8 10 14 26 14
22 0 25 2 14 15 -14 16 -55 21 -45 5 3 -5 1 -10 -4 -10 -6 0 -11 7 -11 15 0
21 -28 19 -33 -2 -4 -14 -5 -13 -6 4 -1 27 6 29 99 29 74 -1 77 -2 114 -38z
m1355 6 c2 -2 -46 -4 -107 -4 -61 0 -113 -3 -116 -8 -2 -4 13 -6 34 -4 21 2
41 -1 45 -8 10 -16 -1 -24 -22 -15 -29 13 -43 14 -43 4 0 -12 -37 -12 -44 0
-4 5 0 12 6 14 7 3 -1 6 -19 6 -17 1 -35 6 -39 12 -4 6 -20 8 -39 5 -19 -4
-36 -2 -39 3 -6 9 373 4 383 -5z m186 6 c3 -5 0 -19 -6 -32 -7 -13 -15 -30
-19 -38 -8 -18 -85 -66 -120 -75 -23 -5 -24 -5 -5 6 11 7 23 17 27 23 4 6 8 7
8 3 0 -5 5 -5 12 -1 8 5 6 10 -8 15 -17 7 -17 8 4 8 12 1 22 5 22 10 0 4 -12
7 -27 5 -17 -2 -20 -1 -8 2 30 9 42 24 20 24 -16 0 -17 2 -5 10 12 8 12 10 -3
16 -9 3 -17 12 -17 20 0 10 15 14 59 14 33 0 62 -4 66 -10z m-491 -27 c8 -19
-34 -27 -50 -9 -8 9 -9 11 -2 6 18 -15 32 -12 18 4 -9 12 -8 15 9 13 11 -1 23
-7 25 -14z m1423 -27 c-26 -33 -26 -56 0 -34 11 8 12 7 7 -5 -3 -9 -17 -15
-34 -15 l-29 1 36 44 c42 51 57 58 20 9z m265 12 c-6 -7 -25 -21 -44 -32 l-33
-18 30 26 c17 14 35 30 40 35 14 13 20 4 7 -11z m-2245 6 c-3 -3 -12 -4 -19
-1 -8 3 -5 6 6 6 11 1 17 -2 13 -5z m1696 -21 c-7 -2 -21 -2 -30 0 -10 3 -4 5
12 5 17 0 24 -2 18 -5z m-1863 -10 c0 -13 -14 -28 -28 -31 -8 -1 -11 2 -6 9 5
9 2 10 -9 6 -17 -6 -23 4 -10 16 9 9 53 9 53 0z m771 -19 c15 -16 19 -24 9
-22 -8 2 -18 11 -22 20 -5 12 -13 15 -24 11 -12 -4 -15 -3 -10 5 11 18 20 15
47 -14z m899 10 c0 -8 -4 -14 -10 -14 -5 0 -10 5 -10 10 0 6 -23 9 -52 8 l-53
-1 50 -6 50 -6 -55 -7 c-41 -4 -59 -2 -72 9 -11 10 -18 11 -23 3 -4 -7 -11 -8
-18 -2 -7 6 -21 12 -32 15 -11 3 35 5 103 5 97 0 122 -3 122 -14z m-1000 -11
c0 -10 4 -14 8 -8 4 6 13 11 21 13 11 2 12 0 3 -11 -7 -8 -8 -17 -4 -22 4 -4
-8 0 -25 9 -35 17 -44 36 -18 36 8 0 15 -8 15 -17z m215 7 c3 -5 2 -10 -4 -10
-5 0 -13 5 -16 10 -3 6 -2 10 4 10 5 0 13 -4 16 -10z m570 -14 c-18 -13 -17
-14 15 -31 23 -12 35 -14 38 -6 2 6 10 11 18 11 9 0 12 -5 8 -12 -5 -8 0 -9
14 -6 12 4 22 2 22 -2 0 -5 10 -11 23 -14 12 -2 -27 -2 -88 1 -121 6 -145 13
-145 45 0 15 3 18 13 11 33 -26 63 -21 58 10 0 4 9 7 21 7 21 0 21 -1 3 -14z
m52 -1 c0 -8 -4 -15 -9 -15 -10 0 -11 14 -1 23 9 10 10 9 10 -8z m408 6 c18
-2 17 -4 -7 -16 -29 -16 -58 -11 -58 10 0 7 10 11 23 10 12 -1 31 -3 42 -4z
m-168 -7 c-3 -3 -12 -4 -19 -1 -8 3 -5 6 6 6 11 1 17 -2 13 -5z m-807 -30 c0
-21 -27 -17 -33 5 -3 14 0 17 14 14 11 -3 19 -12 19 -19z m-50 6 c0 -5 -4 -10
-9 -10 -6 0 -13 5 -16 10 -3 6 1 10 9 10 9 0 16 -4 16 -10z m1283 -7 c-13 -2
-35 -2 -50 0 -16 2 -5 4 22 4 28 0 40 -2 28 -4z m-2083 -13 c0 -5 -8 -10 -17
-10 -15 0 -16 2 -3 10 19 12 20 12 20 0z m670 0 c8 -5 11 -10 5 -10 -5 0 -17
5 -25 10 -8 5 -10 10 -5 10 6 0 17 -5 25 -10z m55 0 c13 -6 15 -9 5 -9 -8 0
-22 4 -30 9 -18 12 -2 12 25 0z m955 -6 c0 -2 -9 -4 -20 -4 -11 0 -20 4 -20 9
0 5 9 7 20 4 11 -3 20 -7 20 -9z m-802 -9 c10 14 30 17 56 8 18 -6 15 -8 -19
-14 -22 -4 -62 -8 -90 -7 -46 0 -47 1 -17 8 18 4 36 11 39 14 4 3 10 1 15 -6
5 -8 11 -9 16 -3z m-571 -1 c-3 -3 -12 -4 -19 -1 -8 3 -5 6 6 6 11 1 17 -2 13
-5z m1306 -1 c-7 -2 -21 -2 -30 0 -10 3 -4 5 12 5 17 0 24 -2 18 -5z m17 -135
c0 -19 -173 -51 -371 -69 -170 -16 -685 -16 -849 0 -225 21 -378 50 -367 68 6
10 1587 11 1587 1z"/>
<path d="M5670 7565 c0 -63 59 -116 77 -69 10 26 -33 104 -57 104 -16 0 -20
-7 -20 -35z"/>
<path d="M4499 6581 c-20 -16 -22 -23 -13 -38 25 -40 99 -15 92 31 -4 29 -48
33 -79 7z"/>
<path d="M4420 6491 c-12 -23 -13 -61 -2 -77 24 -37 82 -16 82 29 0 54 -58 88
-80 48z"/>
<path d="M4587 6483 c-22 -21 0 -63 33 -63 15 0 31 37 24 54 -6 16 -45 22 -57
9z"/>
<path d="M3023 5063 c-20 -7 -15 -41 6 -53 25 -13 51 11 44 40 -5 19 -24 24
-50 13z"/>
<path d="M3005 4799 c-7 -21 7 -39 31 -39 15 0 25 26 18 45 -9 22 -42 18 -49
-6z"/>
<path d="M5085 3754 c-74 -27 -115 -85 -115 -163 0 -59 39 -101 94 -101 70 0
96 34 116 152 24 143 26 128 -17 127 -21 0 -56 -7 -78 -15z"/>
<path d="M3815 3000 c4 -6 11 -8 16 -5 14 9 11 15 -7 15 -8 0 -12 -5 -9 -10z"/>
<path d="M6377 7570 c-24 -19 -26 -19 -56 -3 -42 24 -51 10 -51 -83 0 -84 27
-137 72 -142 45 -5 113 32 148 79 39 54 37 83 -7 87 -24 2 -33 9 -38 30 -7 29
-23 52 -35 52 -4 0 -19 -9 -33 -20z m21 -114 c4 -18 -27 -48 -40 -40 -12 8 -9
39 4 52 16 16 32 10 36 -12z"/>
<path d="M2668 7005 c-35 -20 -48 -44 -48 -90 0 -75 38 -102 151 -107 l74 -3
-1 30 c-6 131 -94 216 -176 170z m82 -80 c17 -21 5 -45 -23 -45 -30 0 -50 22
-41 44 8 20 47 21 64 1z"/>
<path d="M7825 6293 c-44 -23 -90 -69 -152 -151 -70 -95 -81 -119 -62 -136 19
-18 200 -51 280 -51 55 0 72 4 108 28 48 32 81 91 81 147 0 69 -52 146 -113
169 -40 16 -107 13 -142 -6z m142 -87 c23 -20 28 -32 28 -70 0 -56 -32 -94
-89 -103 -36 -6 -196 24 -196 36 0 13 106 125 135 142 42 26 88 24 122 -5z"/>
<path d="M7383 6053 c-23 -8 -56 -27 -73 -43 -26 -25 -30 -34 -29 -82 1 -76
11 -102 38 -106 40 -6 111 27 132 62 31 51 22 187 -13 185 -7 0 -32 -7 -55
-16z m21 -88 c8 -21 -3 -44 -26 -56 -29 -15 -43 2 -27 32 20 39 43 49 53 24z"/>
<path d="M2201 5737 c-34 -20 -50 -55 -51 -110 0 -40 5 -53 29 -77 79 -79 172
-41 260 104 47 78 39 85 -104 92 -84 4 -116 2 -134 -9z m143 -66 c17 -7 16
-10 -13 -43 -35 -40 -56 -49 -89 -37 -29 11 -29 53 0 73 23 17 70 20 102 7z"/>
<path d="M7894 5090 c-28 -11 -124 -138 -117 -156 4 -12 120 -44 158 -44 33 0
86 33 101 63 44 85 -49 175 -142 137z m71 -74 c24 -17 14 -43 -20 -52 -18 -4
-32 -2 -42 9 -14 13 -13 17 6 36 25 25 31 26 56 7z"/>
<path d="M7501 4051 c-13 -80 -60 -226 -102 -320 -16 -35 -28 -65 -27 -65 2
-1 37 0 78 2 75 4 75 4 105 46 43 58 150 110 295 142 63 14 119 29 124 34 15
14 19 96 6 134 -15 46 -53 76 -97 76 -67 0 -99 -31 -109 -103 -9 -62 -35 -82
-100 -74 -80 9 -120 70 -90 141 16 40 16 41 -35 50 l-36 6 -12 -69z"/>
<path d="M3098 4061 c-34 -40 -60 -108 -73 -187 l-6 -42 48 5 c110 10 163 48
181 129 17 81 -13 134 -77 134 -34 0 -45 -6 -73 -39z"/>
<path d="M7865 3755 c-51 -18 -114 -85 -117 -122 -5 -103 23 -145 98 -145 68
0 104 67 120 220 l7 62 -34 0 c-19 -1 -52 -7 -74 -15z"/>
<path d="M2876 3032 c-36 -39 -43 -88 -16 -130 38 -61 117 -67 164 -11 58 69
11 168 -80 169 -31 0 -46 -6 -68 -28z m92 -44 c19 -19 14 -56 -8 -63 -24 -8
-50 10 -50 34 0 19 19 41 35 41 6 0 16 -5 23 -12z"/>
<path d="M7286 3035 c-25 -25 -20 -72 9 -91 31 -20 53 -15 78 17 17 24 18 30
6 55 -17 35 -67 45 -93 19z"/>
</g>
</svg>
